Coordinates
version=1
nRows=6
nColumns=36
inDegrees=yes

Units are S.I. units (second, meters, Newtons, ...)
If the header above contains a line with 'inDegrees', this indicates whether rotational values are in degrees (yes) or radians (no).

endheader
time	pelvis_tilt	pelvis_list	pelvis_rotation	pelvis_tx	pelvis_ty	pelvis_tz	hip_flexion_r	hip_adduction_r	hip_rotation_r	knee_angle_r	knee_angle_r_beta	ankle_angle_r	subtalar_angle_r	mtp_angle_r	hip_flexion_l	hip_adduction_l	hip_rotation_l	knee_angle_l	knee_angle_l_beta	ankle_angle_l	subtalar_angle_l	mtp_angle_l	lumbar_extension	lumbar_bending	lumbar_rotation	arm_flex_r	arm_add_r	arm_rot_r	elbow_flex_r	pro_sup_r	arm_flex_l	arm_add_l	arm_rot_l	elbow_flex_l	pro_sup_l
      0.00000000	     -1.01796948	     -2.35819213	     -2.37712349	     -0.37959654	      1.19484759	     -0.05733468	     -3.47042152	      2.98728705	      0.25087607	      2.14401792	      0.03742017	    -15.39920721	    -23.03599157	     -5.44259870	      0.01491578	     -5.28978298	      6.40391602	      2.56152247	      0.04470700	      3.61096383	    -13.63428044	     -5.44259870	     -6.22571108	      2.55991804	     -0.32046085	     -7.86728439	     -7.80159356	      0.38341457	     27.22387283	     77.56006115	      1.02299627	    -10.34240682	     22.81610080	     28.30569232	     69.07920332
      0.01666670	     -2.27278296	     -2.93936980	     -2.79687982	     -0.38628632	      1.19133229	     -0.06065310	     -0.85424261	      3.63387823	     -0.62905154	      4.21522453	      0.07356955	    -13.55679576	    -20.50002064	     -5.66554786	      0.98603200	     -5.30312369	      8.44766510	      1.88864328	      0.03296304	      2.65746847	    -14.04709259	     -5.66554786	     -5.16052038	      3.59809219	     -0.49721539	     -8.08764614	     -6.58373529	     -6.86214561	     28.68012366	     77.51305007	      0.43311205	     -8.22169439	     15.85099074	     28.46881593	     69.22550467
      0.03333330	     -3.46861004	     -2.89958132	     -3.18312182	     -0.37934373	      1.19068616	     -0.05640462	      0.57476442	      3.81818873	     -0.94277634	      4.03423698	      0.07041072	    -12.10834894	    -21.16694723	     -5.74482780	      1.78930191	     -5.43524413	      8.56870642	      1.18504129	      0.02068287	      2.40193024	    -14.40066613	     -5.74482780	     -3.47294954	      3.38154867	     -0.28724580	     -9.08331816	     -5.86462096	     -9.60515334	     30.00502488	     77.77123069	     -0.79259938	     -8.16568097	     13.46073189	     29.35823221	     69.78942236
      0.05000000	     -3.03563811	     -3.26412905	     -3.01656327	     -0.38739565	      1.19388140	     -0.05966086	      0.38582053	      4.17598879	     -1.43320323	      3.93851891	      0.06874012	    -11.96491799	    -21.81508417	     -6.42771760	      1.34864079	     -5.68323594	      9.22285464	      0.72851001	      0.01271490	      2.17710067	    -14.99189669	     -6.42771760	     -4.44442335	      3.78738632	     -0.35043135	     -8.99846422	     -5.13894024	    -14.55932272	     31.34696834	     84.33909860	     -0.78774078	     -7.58946090	      9.23467911	     29.90658507	     78.85649977
      0.06666670	     -2.90025971	     -3.49011182	     -3.11690896	     -0.38756389	      1.19380035	     -0.05940814	      0.41965557	      4.41238742	     -1.81715446	      3.92358359	      0.06847945	    -12.91255595	    -23.20185709	     -7.18355255	      1.28217510	     -5.84143571	      9.39101598	      0.54621595	      0.00953327	      2.26527430	    -14.98228650	     -7.18355255	     -4.87687421	      4.02602913	     -0.12213291	     -8.92911348	     -5.26033304	    -14.82174183	     31.94421969	     84.13028893	     -0.84919792	     -7.49301981	      8.51374073	     30.75619405	     80.21638362
      0.08333330	     -2.75571222	     -3.63300285	     -3.23912625	     -0.38121124	      1.19108778	     -0.05611501	      0.20109482	      4.61870601	     -2.14361620	      3.82679881	      0.06679024	    -12.50251361	    -23.71592125	     -7.18482127	      0.80391052	     -6.07216472	      8.99039473	      0.48803520	      0.00851782	      2.53030815	    -15.32359938	     -7.18482127	     -4.60637428	      4.00998171	     -0.21539555	     -9.08830983	     -5.19240990	    -14.81446943	     32.00092155	     84.12402634	     -1.01283262	     -7.57155271	      8.54520869	     30.68854057	     80.23479356
